<svg xml:space="preserve" style="enable-background:new 0 0 375 375;" viewBox="0 0 375 375" y="0px" x="0px" xmlns:xlink="http://www.w3.org/1999/xlink" xmlns="http://www.w3.org/2000/svg" id="Layer_1" version="1.1">
<style type="text/css">
	.st0{fill-rule:evenodd;clip-rule:evenodd;fill:#786FDB;}
	.st1{fill:#82CF97;}
	.st2{fill:#FFFFFF;}
	.st3{font-family:'Inter-Light';}
	.st4{font-size:7.0825px;}
	.st5{font-family:'Inter-Medium';}
	.st6{font-size:7.9678px;}
	.st7{opacity:0.5;}
	.st8{opacity:0.4;fill:none;stroke:#D8D8D8;stroke-width:0.5;stroke-linecap:round;stroke-linejoin:round;stroke-miterlimit:10;}
	.st9{fill:none;stroke:#FFFFFF;stroke-width:2;stroke-linecap:round;stroke-linejoin:round;stroke-miterlimit:10;}
	.st10{fill:#4D82D1;}
	.st11{fill:#E493BC;}
	.st12{opacity:0.41;fill:none;stroke:#020202;stroke-width:0.5;stroke-miterlimit:10;}
	.st13{fill:#3A74D3;}
	.st14{font-size:10.2568px;}
	.st15{font-family:'Inter-Regular';}
	.st16{font-size:7.7199px;}
	.st17{fill-rule:evenodd;clip-rule:evenodd;fill:#110B84;}
	.st18{fill-rule:evenodd;clip-rule:evenodd;fill:#FFDAD7;}
	.st19{fill-rule:evenodd;clip-rule:evenodd;}
	.st20{fill-rule:evenodd;clip-rule:evenodd;fill:#EDB6FE;}
	.st21{fill-rule:evenodd;clip-rule:evenodd;fill:#4848FF;}
	.st22{fill-rule:evenodd;clip-rule:evenodd;fill:#82CF97;}
	.st23{opacity:0.5;fill-rule:evenodd;clip-rule:evenodd;fill:#3A74D3;}
	.st24{fill:#F5CF8F;}
</style>
<polygon points="301.2,160.9 269.9,144.9 153.4,304.8 214.7,304.8 301.2,160.9" class="st0"></polygon>
<path d="M19.2,213.7c-0.2-1,0-4.2,0-6.3c0-29.3,19.9-53.1,44.5-53.1c17.5,0,32.6,12,39.9,29.5
	c3,7.1-26.3,14.7-29.6,10.4c-2.4-3.1-5.1-4.8-8-4.8c-7.1,0-12,8.2-11.9,24.3c0,0,1.7,12.8,2.6,15.6C66.8,259.7,161,373.5,161,373.5
	H99.7c-28.3-35.2-51.6-72.6-67.9-113.1C21.9,242,19.2,213.7,19.2,213.7L19.2,213.7z" class="st0"></path>
<g>
	<g>
		
			<image transform="matrix(1 0 0 1 -6 160)" xlink:href="E555CCE46F0D7DA7.png" height="237" width="291" style="overflow:visible;opacity:0.15;">
		</image>
		<g>
			<path d="M210.5,329.1H55.2c-4.1,0-7.5-3.3-7.5-7.5V220.9c0-4.1,3.3-7.5,7.5-7.5h155.3c4.1,0,7.5,3.3,7.5,7.5v100.7
				C217.9,325.8,214.6,329.1,210.5,329.1z" class="st1"></path>
		</g>
	</g>
	<g>
		<g>
			<g>
				<g>
					<text class="st2 st3 st4" transform="matrix(1 0 0 1 58.591 302.3765)">10</text>
				</g>
				<g>
					<text class="st2 st3 st4" transform="matrix(1 0 0 1 58.591 282.0972)">20</text>
				</g>
				<g>
					<text class="st2 st3 st4" transform="matrix(1 0 0 1 58.591 261.8159)">30</text>
				</g>
			</g>
		</g>
		<text class="st2 st5 st6" transform="matrix(1 0 0 1 57.3224 240.5913)">Line Graph</text>
		<g class="st7">
			<g>
				<text class="st2 st3 st4" transform="matrix(1 0 0 1 73.8918 313.0777)">0</text>
			</g>
			<g>
				<text class="st2 st3 st4" transform="matrix(1 0 0 1 97.1291 313.0777)">1</text>
			</g>
			<g>
				<text class="st2 st3 st4" transform="matrix(1 0 0 1 121.2521 313.0777)">2</text>
			</g>
			<g>
				<text class="st2 st3 st4" transform="matrix(1 0 0 1 145.3752 313.0777)">3</text>
			</g>
			<g>
				<text class="st2 st3 st4" transform="matrix(1 0 0 1 169.4973 313.0777)">4</text>
			</g>
			<g>
				<text class="st2 st3 st4" transform="matrix(1 0 0 1 193.6203 313.0777)">5</text>
			</g>
		</g>
		<g>
			<line y2="300.9" x2="207.5" y1="300.9" x1="76" class="st8"></line>
			<line y2="280.5" x2="207.5" y1="280.5" x1="76" class="st8"></line>
			<line y2="260.1" x2="207.5" y1="260.1" x1="76" class="st8"></line>
			<g>
				<path d="M76,300.6c0,0.6-0.5,1.1-1.1,1.1c-0.6,0-1.1-0.5-1.1-1.1c0-0.6,0.5-1.1,1.1-1.1C75.5,299.5,76,300,76,300.6
					z" class="st2"></path>
				<path d="M100.2,300.6c0,0.6-0.5,1.1-1.1,1.1c-0.6,0-1.1-0.5-1.1-1.1c0-0.6,0.5-1.1,1.1-1.1
					C99.7,299.5,100.2,300,100.2,300.6z" class="st2"></path>
				<path d="M124.4,300.6c0,0.6-0.5,1.1-1.1,1.1c-0.6,0-1.1-0.5-1.1-1.1c0-0.6,0.5-1.1,1.1-1.1
					C124,299.5,124.4,300,124.4,300.6z" class="st2"></path>
				<path d="M148.7,300.6c0,0.6-0.5,1.1-1.1,1.1c-0.6,0-1.1-0.5-1.1-1.1c0-0.6,0.5-1.1,1.1-1.1
					C148.2,299.5,148.7,300,148.7,300.6z" class="st2"></path>
				<path d="M172.9,300.6c0,0.6-0.5,1.1-1.1,1.1c-0.6,0-1.1-0.5-1.1-1.1c0-0.6,0.5-1.1,1.1-1.1
					C172.4,299.5,172.9,300,172.9,300.6z" class="st2"></path>
				<path d="M197.2,300.6c0,0.6-0.5,1.1-1.1,1.1c-0.6,0-1.1-0.5-1.1-1.1c0-0.6,0.5-1.1,1.1-1.1
					C196.7,299.5,197.2,300,197.2,300.6z" class="st2"></path>
			</g>
		</g>
		<g>
			<path d="M75.4,283.6l15.1,7.1c5.2,2.4,11.3,1.8,15.8-1.7l10-7.5c5.2-3.9,12.3-4.2,17.8-0.6l0,0
				c7.5,4.9,17.5,2.5,21.9-5.3l5.8-10.3c5.5-9.7,19.1-10.6,25.8-1.7l3.5,4.7c2.9,3.9,7.5,6.2,12.3,6.2" class="st9"></path>
		</g>
	</g>
</g>
<g>
	<circle r="18.2" cy="297.8" cx="309.9" class="st10"></circle>
	<polygon points="309.9,289.3 312.4,295.3 318.9,295.8 313.9,300 315.4,306.3 309.9,302.9 304.4,306.3 305.9,300 
		301,295.8 307.4,295.3" class="st2"></polygon>
</g>
<g>
	<g>
		
			<image transform="matrix(1 0 0 1 121 127)" xlink:href="E555CCE46F0D7DA5.png" height="181" width="254" style="overflow:visible;opacity:0.15;">
		</image>
		<g>
			<path d="M299.2,240.9H182.3c-4.3,0-7.8-3.5-7.8-7.8v-44.7c0-4.3,3.5-7.8,7.8-7.8h116.9c4.3,0,7.8,3.5,7.8,7.8v44.7
				C307,237.4,303.5,240.9,299.2,240.9z" class="st2"></path>
		</g>
	</g>
	<circle r="19.5" cy="211.7" cx="204.5" class="st11"></circle>
	<circle r="21.6" cy="211.7" cx="204.5" class="st12"></circle>
	<text class="st13 st5 st14" transform="matrix(1 0 0 1 236.9618 211.9626)">Alice </text>
	<g>
		<defs>
			<circle r="19.5" cy="211.7" cx="204.5" id="SVGID_1_"></circle>
		</defs>
		<clipPath id="SVGID_00000096024227551158518520000014083547333022811035_">
			
		</clipPath>
		<g style="clip-path:url(#SVGID_00000096024227551158518520000014083547333022811035_);" transform="matrix(1 0 0 1 0 0)">
			
				<image transform="matrix(9.403913e-02 0 0 9.396848e-02 180.5031 189.2061)" xlink:href="../../Downloads/avatar-optimized/Pik/photo-1618085221129-cb9f9ac1e651.png" height="500" width="500" style="overflow:visible;">
			</image>
		</g>
	</g>
	<text class="st7 st15 st16" transform="matrix(1 0 0 1 236.0887 224.0535)">23 projects</text>
</g>
<path d="M327,136.1c0.6,0.2,0.5,1.8-0.2,3.6c-0.7,1.8-1.6,3.2-2.2,3c-0.6-0.2-0.5-1.8,0.2-3.6
	C325.5,137.2,326.5,135.9,327,136.1L327,136.1z" class="st17"></path>
<path d="M74,194.2c-3.7-5,26.9-16.3,29.6-10.4c1.2,2.6,2.1,5.4,2.8,8.3c1.2,4.8,11.1,2.8,13.4,7.6
	c6.4,13.4,5,36.4-3.3,29.8c-2.6,4.3-5.6,4.5-9,1.1c-3.4,2.9-6.4,3.3-8.9-0.1c-15,5.8-4.1-11.2-11.1-16.6l-17.3,0.3
	c-0.5-16.6,8.4-11.6,6.4-15.6C75.8,196.9,74.9,195.5,74,194.2L74,194.2z" class="st18"></path>
<path d="M109,213.1c0,0,2,9.4-1.4,16.4c-0.1,0.2,0,0.4,0.2,0.5c0.2,0.1,0.4,0,0.5-0.2c3.5-7.2,1.5-16.9,1.5-16.9
	c0-0.2-0.2-0.3-0.5-0.3C109.1,212.7,109,212.9,109,213.1L109,213.1z M100,212.1c0,0,0.6,4.2,0.5,8.9c-0.1,3.1-0.5,6.3-1.7,8.6
	c-0.1,0.2,0,0.4,0.2,0.5c0.2,0.1,0.4,0,0.5-0.2c1.2-2.4,1.6-5.7,1.7-8.9c0.1-4.7-0.5-9-0.5-9c0-0.2-0.2-0.4-0.4-0.3
	C100.1,211.7,100,211.9,100,212.1L100,212.1z M117.1,213.1c0,0,2,8.8-0.5,15.4c-0.1,0.2,0,0.4,0.2,0.5c0.2,0.1,0.4,0,0.5-0.2
	c2.6-6.9,0.5-15.9,0.5-15.9c0-0.2-0.3-0.3-0.5-0.3C117.2,212.7,117.1,212.9,117.1,213.1L117.1,213.1z M84.9,208.8
	c0,0,1.3,1.5,2.3,4.4c0.1,0.2,0.3,0.3,0.5,0.2c0.2-0.1,0.3-0.3,0.2-0.5c-1-3.1-2.4-4.7-2.4-4.7c-0.1-0.2-0.4-0.2-0.5,0
	C84.8,208.4,84.8,208.6,84.9,208.8L84.9,208.8z M77.9,199.5c0,0,2.2-1,3.8-1.1c0.2,0,0.4-0.2,0.4-0.4c0-0.2-0.2-0.4-0.4-0.4
	c-1.7,0.1-4.1,1.2-4.1,1.2c-0.2,0.1-0.3,0.3-0.2,0.5C77.5,199.5,77.8,199.6,77.9,199.5L77.9,199.5z M61.5,182.5c0,0,7,0.9,11.9,9.4
	c0.1,0.2,0.3,0.2,0.5,0.1c0.2-0.1,0.2-0.3,0.1-0.5c-5.1-8.9-12.5-9.8-12.5-9.8c-0.2,0-0.4,0.1-0.4,0.3
	C61.1,182.3,61.2,182.5,61.5,182.5L61.5,182.5z" class="st19"></path>
<g>
	
		<image transform="matrix(1 0 0 1 100 -24)" xlink:href="E555CCE46F0D7DAD.png" height="248" width="242" style="overflow:visible;opacity:0.15;">
	</image>
	<g>
		<path d="M266,156.9H161.7c-4.6,0-8.3-3.7-8.3-8.3V37.8c0-4.6,3.7-8.3,8.3-8.3H266c4.6,0,8.3,3.7,8.3,8.3v110.7
			C274.3,153.2,270.6,156.9,266,156.9z" class="st2"></path>
	</g>
</g>
<path d="M279.9,121.9c-3.1,0.8-9.4-0.4-8.3-5.4c0.4-1.6,9.8-7.7,12.1-4.4c4.5-1.2,8.6-1.4,9.6,0.7
	c4.2-0.8,8,1.6,8.8,4.4c2.1,0,6.9,1.9,7.6,4.8c3.4,14.1-4.5,29-12.5,36.8L276.7,148c0.7-3.3-2-6.9-1.6-11.7c0.2-2.4,1.5-4.6,1.5-6.1
	C276.7,125.2,278.8,122.3,279.9,121.9L279.9,121.9z" class="st18"></path>
<polygon points="262,121.1 251.2,112.4 264.3,112.8 262,121.1" class="st20"></polygon>
<polygon points="254.3,112.5 253.5,114.3 251.2,112.4 254.3,112.5" class="st19"></polygon>
<path d="M327,136.1c-1.5-0.2-3.7,6.4-2.4,6.7L262,121.1c-0.1-1.4,0-5.1,2-8.4L327,136.1L327,136.1z" class="st21"></path>
<path d="M288.7,140.8c0,0-0.3-2.2,1.3-4.2c0,0-6.4-16.9,3.7-15.5c3.6,10.4,8.2,8.2,9.4,17.7
	C305.5,148.3,285.6,159.7,288.7,140.8L288.7,140.8z" class="st18"></path>
<path d="M279.9,121.9c-3.1,0.8-9.4-0.4-8.3-5.4c0.4-1.6,9.8-7.7,12.1-4.4c4.5-1.2,8.6-1.4,9.6,0.7
	c4.2-0.8,8,1.6,8.8,4.4c2.1,0,6.9,1.9,7.6,4.8c0.5,2.2,0.7,6.1,0.7,8c0,0.7-2.9-1.5-7.2-0.8c-3,0.4-8.9-0.5-11.1-5.7
	C292.2,123.4,285,126.5,279.9,121.9L279.9,121.9z" class="st18"></path>
<path d="M293.7,115.3c0,0,0.1,0,0.2,0c0.2,0.1,0.5,0.2,0.9,0.4c2.1,0.7,6.8,1.9,6.8,1.9c0.1,0,0.2,0,0.3-0.2
	c0-0.1,0-0.2-0.2-0.3c0,0-4.7-1.2-6.8-1.9c-0.3-0.1-0.6-0.2-0.7-0.3c-0.1,0-0.1-0.1-0.2-0.1c0,0,0,0,0,0c-0.1-0.1-0.2-0.1-0.3-0.1
	c-0.1,0-0.3,0.2-0.5,0.5c-0.4,0.7-1,2.5-1.1,4.2c0,0.5,0,1,0,1.4c0.1,0.7,0.5,0.6,0.4,0c0-0.3-0.1-0.6,0-0.9c0-1.5,0.4-3,0.8-3.9
	c0.1-0.2,0.2-0.4,0.3-0.6l0,0c0,0-0.1,0-0.1,0c0,0,0,0,0,0l0,0l0.1,0l0,0c0-0.1,0-0.4,0.1-0.3l0,0
	C293.7,115.2,293.7,115.3,293.7,115.3L293.7,115.3z M285.5,114.7c-0.1,0-0.1,0.1-0.1,0.1c0,0.1,0,0.2-0.1,0.2c0,0.3,0,0.7,0,1.1
	c0.3,2,1.6,5.1,4.4,5.6c0.4,0.1,0.1,0.5-0.5,0.3c-1.4-0.3-2.4-1.3-3.1-2.4c-1-1.5-1.4-3.3-1.3-4.4c0-0.4,0.1-0.7,0.2-0.9
	c0.1-0.1,0.2-0.2,0.3-0.2c1,0,7.4-1.7,7.4-1.7c0.1,0,0.2,0,0.3,0.2c0,0.1,0,0.2-0.2,0.3C292.9,113,286.8,114.6,285.5,114.7
	L285.5,114.7z M283.3,112.5c0.1,0,0.2,0,0.3,0.2c0,0.1,0,0.2-0.2,0.3c0,0-3.1,0.8-4.8,2c-0.4,0.2-0.6,0.5-0.8,0.8
	c-0.2,0.2-0.3,0.5-0.2,0.8c0.3,2,1.2,3.7,2.4,4.4c0.1,0.1,0.1,0.2,0.1,0.3c-0.1,0.1-0.2,0.1-0.3,0.1c-1.3-0.8-2.3-2.5-2.6-4.7
	c-0.1-0.7,0.4-1.4,1.2-2C280.2,113.4,283.3,112.6,283.3,112.5L283.3,112.5z" class="st19"></path>
<path d="M290.2,136.6c0,0-2.3-6-1.9-10.5c0.1-1.7,0.6-3.2,1.9-4.1c0.8-0.5,1.9-0.7,3.3-0.6c1.8,5.1,3.9,7.2,5.6,9.1
	c1.7,1.9,3.1,3.7,3.7,8.4c0,0.1,0.1,0.2,0.3,0.2c0.1,0,0.2-0.1,0.2-0.3c-0.6-4.8-2.1-6.7-3.8-8.7c-1.7-1.9-3.8-3.9-5.6-9.1
	c0-0.1-0.1-0.2-0.2-0.2c-1.7-0.2-2.9,0-3.9,0.6c-1.4,0.9-2,2.5-2.1,4.5c-0.3,4.6,2,10.7,2,10.7c0.1,0.1,0.2,0.2,0.3,0.2
	S290.3,136.7,290.2,136.6L290.2,136.6z" class="st19"></path>
<g>
	<path d="M180,47.2c5.6,0,10.2,4.6,10.2,10.2c0,5.6-4.6,10.2-10.2,10.2c-5.6,0-10.2-4.6-10.2-10.2
		C169.8,51.8,174.4,47.2,180,47.2L180,47.2z" class="st22"></path>
	<path d="M221.2,139.6c0,0,4.6-4.9,8.4-7.3c0.9-0.6,1.8-1,2.6-1.2c0.4-0.1,0.8-0.1,1.1,0.1c0.4,0.2,0.7,0.8,0.7,1.7
		c0.1,1.6-0.4,4.2-1.7,8.1c-0.1,0.2,0,0.4,0.2,0.5c0.2,0.1,0.4,0.1,0.5-0.1c0,0,3.3-3.9,6.1-5.2c1.1-0.5,2.1-0.6,2.8,0.3
		c0.6,0.8,1,2.2,0.9,4.7c0,0.1,0.1,0.3,0.2,0.3c0.1,0.1,0.3,0.1,0.4,0c0,0,2-1.4,4.2-2.5c1.5-0.8,3-1.4,4.1-1.5c0.5,0,0.9,0,1.1,0.3
		c0.3,0.3,0.3,0.8,0.2,1.5c0,0.2,0,0.3,0.2,0.4c0.2,0.1,0.3,0,0.5-0.1l5.2-5.4c0.1-0.2,0.1-0.4,0-0.5c-0.2-0.1-0.4-0.1-0.5,0
		l-4.5,4.7c0-0.5-0.2-0.8-0.4-1.1c-0.4-0.4-1-0.6-1.8-0.5c-0.9,0.1-2.1,0.5-3.3,1c-1.9,0.9-3.9,2.1-4.9,2.8c0-2.3-0.5-3.7-1.1-4.4
		c-0.9-1.1-2.2-1.1-3.7-0.5c-1.9,0.8-4,2.8-5.2,4.1c1-3.2,1.3-5.4,1.2-6.8c-0.1-1.3-0.5-2-1.1-2.3c-0.4-0.2-1-0.3-1.6-0.2
		c-0.8,0.2-1.8,0.6-2.8,1.3c-3.9,2.4-8.5,7.4-8.5,7.4c-0.1,0.2-0.1,0.4,0,0.5C220.8,139.8,221,139.8,221.2,139.6L221.2,139.6z
		 M256.4,120.2c0-0.3-0.2-0.5-0.5-0.5h-30.1c-0.3,0-0.5,0.2-0.5,0.5v1c0,0.3,0.2,0.5,0.5,0.5h30.1c0.3,0,0.5-0.2,0.5-0.5V120.2
		L256.4,120.2z M240.8,100.4c0-0.3-0.3-0.6-0.6-0.6h-69.7c-0.3,0-0.6,0.3-0.6,0.6v1.2c0,0.3,0.3,0.6,0.6,0.6h69.7
		c0.3,0,0.6-0.3,0.6-0.6V100.4L240.8,100.4z M204.6,88.2c0-0.3-0.2-0.5-0.5-0.5h-33.8c-0.3,0-0.5,0.2-0.5,0.5v1
		c0,0.3,0.2,0.5,0.5,0.5h33.8c0.3,0,0.5-0.2,0.5-0.5V88.2L204.6,88.2z M250.5,88.2c0-0.3-0.2-0.5-0.5-0.5h-33.8
		c-0.3,0-0.5,0.2-0.5,0.5v1c0,0.3,0.2,0.5,0.5,0.5H250c0.3,0,0.5-0.2,0.5-0.5V88.2L250.5,88.2z M206.7,76.3c0-0.3-0.2-0.5-0.5-0.5
		h-35.8c-0.3,0-0.5,0.2-0.5,0.5v1.1c0,0.3,0.2,0.5,0.5,0.5h35.8c0.3,0,0.5-0.2,0.5-0.5V76.3L206.7,76.3z M225.2,76.3
		c0-0.3-0.2-0.5-0.5-0.5h-7.6c-0.3,0-0.5,0.2-0.5,0.5v1.1c0,0.3,0.2,0.5,0.5,0.5h7.6c0.3,0,0.5-0.2,0.5-0.5V76.3L225.2,76.3z
		 M256.4,76.3c0-0.3-0.2-0.5-0.5-0.5h-22.2c-0.3,0-0.5,0.2-0.5,0.5v1.1c0,0.3,0.2,0.5,0.5,0.5h22.2c0.3,0,0.5-0.2,0.5-0.5V76.3
		L256.4,76.3z" class="st23"></path>
</g>
<g>
	<g>
		
			<image transform="matrix(1 0 0 1 226 -18)" xlink:href="E555CCE46F0D7DAF.png" height="101" width="101" style="overflow:visible;opacity:0.15;">
		</image>
		<g>
			<circle r="20.1" cy="29.5" cx="273.1" class="st24"></circle>
		</g>
	</g>
	<g>
		<defs>
			<circle r="20.1" cy="29.5" cx="273.1" id="SVGID_00000177465428663151588650000014534764544012244108_"></circle>
		</defs>
		<clipPath id="SVGID_00000026122908972274637000000011367408810119322289_">
			
		</clipPath>
		<g style="clip-path:url(#SVGID_00000026122908972274637000000011367408810119322289_);">
			
				<image transform="matrix(8.159219e-02 0 0 8.159219e-02 254.0371 10.7304)" xlink:href="../../Downloads/avatar-optimized/Pik/photo-1611432579402-7037e3e2c1e4.png" height="500" width="500" style="overflow:visible;">
			</image>
		</g>
	</g>
</g>
</svg>